<svg width="16" height="16" viewBox="0 0 16 16" fill="none" xmlns="http://www.w3.org/2000/svg">
<path d="M8.00022 2.42035C8.96235 2.42035 9.7448 3.18736 9.7448 4.1305C9.7448 5.0708 8.96235 5.83781 8.00022 5.83781C7.0381 5.83781 6.25565 5.0708 6.25565 4.1305C6.25565 3.18736 7.0381 2.42035 8.00022 2.42035ZM8.00022 8.25816C10.3244 8.25816 12.2139 6.40597 12.2139 4.1305C12.2139 1.85219 10.3244 0 8.00022 0C5.67606 0 3.78948 1.85219 3.78948 4.1305C3.78948 6.40597 5.67606 8.25816 8.00022 8.25816ZM9.70422 11.6273C10.562 11.4342 11.3879 11.1018 12.1501 10.6331C12.7268 10.278 12.9007 9.53083 12.5384 8.96551C12.1733 8.39735 11.414 8.22691 10.8344 8.58485C9.11014 9.6473 6.8903 9.6473 5.16312 8.58485C4.58642 8.22691 3.82426 8.39735 3.46201 8.96551C3.09977 9.53083 3.27365 10.278 3.85034 10.6331C4.6125 11.1018 5.43842 11.4342 6.29622 11.6273L3.94018 13.934C3.45912 14.4056 3.45912 15.1726 3.94018 15.6442C4.18361 15.88 4.49659 15.9993 4.81246 15.9993C5.12834 15.9993 5.44422 15.88 5.68765 15.6442L8.00022 13.3772L10.3157 15.6442C10.7968 16.1186 11.5763 16.1186 12.0603 15.6442C12.5413 15.1726 12.5413 14.4056 12.0603 13.934L9.70422 11.6273Z" fill="currentColor"/>
</svg>
