<svg width="16" height="16" viewBox="0 0 16 16" fill="none" xmlns="http://www.w3.org/2000/svg"><path d="M9.41454 0.36377C8.94811 0.36377 8.51042 0.612213 8.22968 0.970494C7.94894 1.32878 7.7942 1.76551 7.68146 2.22579C7.5024 2.96589 7.44714 3.78706 7.43387 4.52716C6.12301 4.61869 4.93594 5.02666 3.95002 5.65692C3.54991 5.30387 3.06801 5.10773 2.606 5.11296C2.07989 5.11819 1.5803 5.35617 1.20892 5.84521C0.499333 6.77884 0.581124 8.30611 1.40345 9.21358C1.35261 9.49341 1.31503 9.78108 1.31503 10.0714C1.31503 13.1468 4.30814 15.6365 7.99978 15.6365C11.6914 15.6365 14.6845 13.1442 14.6845 10.0714C14.6845 9.78108 14.6469 9.49341 14.5961 9.21358C15.4184 8.30611 15.5002 6.77884 14.7906 5.84521C14.4193 5.35617 13.9197 5.11819 13.3936 5.11296C12.9315 5.10773 12.4496 5.30387 12.0495 5.65692C11.068 5.02927 9.8876 4.6213 8.58337 4.52716C8.60105 3.84459 8.64747 3.13587 8.7779 2.60237C8.85969 2.26763 8.95695 2.02442 9.06085 1.89104C9.16475 1.75767 9.2399 1.70275 9.41454 1.70275C9.79255 1.70275 9.84118 1.83089 10.0689 2.1421C10.1838 2.29901 10.3165 2.49515 10.5287 2.68606C10.7409 2.87697 11.0548 3.04173 11.3952 3.04173V1.70275C11.3002 1.70275 11.2825 1.70013 11.2184 1.63998C11.1543 1.57983 11.0658 1.44123 10.9354 1.2634C10.6746 0.905115 10.1683 0.36377 9.41454 0.36377ZM13.0929 0.489299C12.2131 0.489299 11.5013 1.33139 11.5013 2.37224C11.5013 3.41308 12.2131 4.25518 13.0929 4.25518C13.9727 4.25518 14.6845 3.41308 14.6845 2.37224C14.6845 1.33139 13.9727 0.489299 13.0929 0.489299ZM13.0929 1.15879C13.6588 1.15879 14.1186 1.70275 14.1186 2.37224C14.1186 3.04173 13.6588 3.58569 13.0929 3.58569C12.527 3.58569 12.0672 3.04173 12.0672 2.37224C12.0672 1.70275 12.527 1.15879 13.0929 1.15879ZM7.99978 5.57323C11.1321 5.57323 13.7826 7.63662 13.7826 10.0714C13.7826 12.5087 11.1321 14.5695 7.99978 14.5695C4.86741 14.5695 2.21694 12.5087 2.21694 10.0714C2.21694 7.63662 4.86741 5.57323 7.99978 5.57323ZM2.62369 6.17996C2.78064 6.18257 2.94422 6.22442 3.10117 6.30549C2.53305 6.81545 2.0821 7.40125 1.77483 8.0629C1.56261 7.54509 1.62009 6.89914 1.88094 6.55655C2.07104 6.30549 2.3341 6.17734 2.62369 6.17996ZM13.3759 6.17996C13.6655 6.17734 13.9285 6.30549 14.1186 6.55655C14.3795 6.89914 14.4369 7.54509 14.2247 8.0629C13.9175 7.40125 13.4665 6.81545 12.8984 6.30549C13.0553 6.22442 13.2189 6.18257 13.3759 6.17996ZM5.73616 7.85368C5.17026 7.85368 4.71046 8.39764 4.71046 9.06713C4.71046 9.73662 5.17026 10.2806 5.73616 10.2806C6.30206 10.2806 6.76186 9.73662 6.76186 9.06713C6.76186 8.39764 6.30206 7.85368 5.73616 7.85368ZM10.2634 7.85368C9.69749 7.85368 9.23769 8.39764 9.23769 9.06713C9.23769 9.73662 9.69749 10.2806 10.2634 10.2806C10.8293 10.2806 11.2891 9.73662 11.2891 9.06713C11.2891 8.39764 10.8293 7.85368 10.2634 7.85368ZM5.18794 11.9752C5.54826 12.8565 6.66239 13.7117 7.99978 13.7117C9.33717 13.7117 10.469 12.8565 10.8293 11.9752C10.175 12.4747 9.14264 12.8121 7.99978 12.8121C6.85692 12.8121 5.84227 12.4747 5.18794 11.9752Z" fill="currentColor"/></svg>