<svg width="16" height="16" viewBox="0 0 16 16" fill="none" xmlns="http://www.w3.org/2000/svg">
<path d="M15.8574 11.4204C15.8144 11.3516 15.5484 10.799 14.2683 9.6632C12.9282 8.47389 13.1082 8.66701 14.7223 6.61056C15.7054 5.35814 16.0984 4.59331 15.9754 4.26634C15.8584 3.95467 15.1353 4.03689 15.1353 4.03689L12.7312 4.05028C12.7312 4.05028 12.5531 4.02733 12.4201 4.10286C12.2911 4.17743 12.2081 4.34952 12.2081 4.34952C12.2081 4.34952 11.8271 5.31895 11.3191 6.14305C10.248 7.8821 9.81894 7.97388 9.64393 7.86584C9.2369 7.6144 9.33891 6.85435 9.33891 6.31514C9.33891 4.62964 9.60593 3.92695 8.81787 3.7453C8.55585 3.68507 8.36384 3.64492 7.69479 3.63822C6.83672 3.62962 6.10967 3.64109 5.69864 3.83326C5.42462 3.96137 5.21361 4.24722 5.34262 4.26348C5.50163 4.28355 5.86165 4.35621 6.05267 4.60478C6.29969 4.92506 6.29069 5.64591 6.29069 5.64591C6.29069 5.64591 6.4327 7.6297 5.95966 7.87636C5.63464 8.04558 5.1896 7.70045 4.23453 6.12202C3.7455 5.31417 3.37547 4.42027 3.37547 4.42027C3.37547 4.42027 3.30447 4.25391 3.17746 4.165C3.02345 4.05697 2.80743 4.02255 2.80743 4.02255L0.521262 4.03594C0.521262 4.03594 0.178236 4.0455 0.0522271 4.18795C-0.0597811 4.3151 0.0432264 4.57706 0.0432264 4.57706C0.0432264 4.57706 1.83336 8.58001 3.85951 10.5982C5.71864 12.4482 7.8288 12.3267 7.8288 12.3267H8.78487C8.78487 12.3267 9.07389 12.2961 9.2209 12.1441C9.35691 12.0045 9.35191 11.7426 9.35191 11.7426C9.35191 11.7426 9.33291 10.516 9.92895 10.3353C10.516 10.1575 11.2701 11.5208 12.0691 12.0457C12.6732 12.4424 13.1322 12.3554 13.1322 12.3554L15.2693 12.3267C15.2693 12.3267 16.3874 12.2608 15.8574 11.4204Z" fill="currentColor"/>
</svg>
